<svg xmlns="http://www.w3.org/2000/svg" xmlns:xlink="http://www.w3.org/1999/xlink" id="processonSvg1000" viewBox="211.0 136.0 566.0 279.0" width="566.0" height="279.0"><defs id="ProcessOnDefs1001"/><g id="ProcessOnG1002"><path id="ProcessOnPath1003" d="M211.0 136.0H777.0V415.0H211.0V136.0Z" fill="none"/><g id="ProcessOnG1004"><g id="ProcessOnG1005" transform="matrix(1.0,0.0,0.0,1.0,231.0,156.0)" opacity="1.0"><path id="ProcessOnPath1006" d="M0.0 0.0L526.0 0.0L526.0 78.0L0.0 78.0Z" stroke="#323232" stroke-width="2.0" stroke-dasharray="none" opacity="1.0" fill="#ffffff"/><g id="ProcessOnG1007" transform="matrix(1.0,0.0,0.0,1.0,10.0,20.25)"><text id="ProcessOnText1008" fill="#000000" font-size="30" x="252.0" y="30.75" font-family="微软雅黑" font-weight="normal" font-style="normal" text-decoration="none" family="微软雅黑" text-anchor="middle" size="30">DataFrame</text></g></g><g id="ProcessOnG1009" transform="matrix(1.0,0.0,0.0,1.0,231.0,241.0)" opacity="1.0"><path id="ProcessOnPath1010" d="M0.0 0.0L76.0 0.0L76.0 154.0L0.0 154.0Z" stroke="#323232" stroke-width="2.0" stroke-dasharray="none" opacity="1.0" fill="#ffffff"/><g id="ProcessOnG1011" transform="matrix(1.0,0.0,0.0,1.0,10.0,64.5)"><text id="ProcessOnText1012" fill="#000000" font-size="20" x="27.0" y="20.5" font-family="微软雅黑" font-weight="normal" font-style="normal" text-decoration="none" family="微软雅黑" text-anchor="middle" size="20">RDD</text></g></g><g id="ProcessOnG1013" transform="matrix(1.0,0.0,0.0,1.0,316.0,241.0)" opacity="1.0"><path id="ProcessOnPath1014" d="M0.0 0.0L176.0 0.0L176.0 70.0L0.0 70.0Z" stroke="#323232" stroke-width="2.0" stroke-dasharray="none" opacity="1.0" fill="#ffffff"/><g id="ProcessOnG1015" transform="matrix(1.0,0.0,0.0,1.0,10.0,22.5)"><text id="ProcessOnText1016" fill="#000000" font-size="20" x="77.0" y="20.5" font-family="微软雅黑" font-weight="normal" font-style="normal" text-decoration="none" family="微软雅黑" text-anchor="middle" size="20">结构化数据文件</text></g></g><g id="ProcessOnG1017" transform="matrix(1.0,0.0,0.0,1.0,316.0,323.0)" opacity="1.0"><path id="ProcessOnPath1018" d="M0.0 0.0L82.0 0.0L82.0 72.0L0.0 72.0Z" stroke="#323232" stroke-width="2.0" stroke-dasharray="none" opacity="1.0" fill="#ffffff"/><g id="ProcessOnG1019" transform="matrix(1.0,0.0,0.0,1.0,10.0,11.0)"><text id="ProcessOnText1020" fill="#000000" font-size="20" x="30.0" y="20.5" font-family="微软雅黑" font-weight="normal" font-style="normal" text-decoration="none" family="微软雅黑" text-anchor="middle" size="20">Parqu</text><text id="ProcessOnText1021" fill="#000000" font-size="20" x="30.0" y="45.5" font-family="微软雅黑" font-weight="normal" font-style="normal" text-decoration="none" family="微软雅黑" text-anchor="middle" size="20">et</text></g></g><g id="ProcessOnG1022" transform="matrix(1.0,0.0,0.0,1.0,410.0,323.0)" opacity="1.0"><path id="ProcessOnPath1023" d="M0.0 0.0L82.0 0.0L82.0 72.0L0.0 72.0Z" stroke="#323232" stroke-width="2.0" stroke-dasharray="none" opacity="1.0" fill="#ffffff"/><g id="ProcessOnG1024" transform="matrix(1.0,0.0,0.0,1.0,10.0,23.5)"><text id="ProcessOnText1025" fill="#000000" font-size="20" x="30.0" y="20.5" font-family="微软雅黑" font-weight="normal" font-style="normal" text-decoration="none" family="微软雅黑" text-anchor="middle" size="20">JSON</text></g></g><g id="ProcessOnG1026" transform="matrix(1.0,0.0,0.0,1.0,501.0,241.0)" opacity="1.0"><path id="ProcessOnPath1027" d="M0.0 0.0L76.0 0.0L76.0 154.0L0.0 154.0Z" stroke="#323232" stroke-width="2.0" stroke-dasharray="none" opacity="1.0" fill="#ffffff"/><g id="ProcessOnG1028" transform="matrix(1.0,0.0,0.0,1.0,10.0,39.5)"><text id="ProcessOnText1029" fill="#000000" font-size="20" x="27.0" y="20.5" font-family="微软雅黑" font-weight="normal" font-style="normal" text-decoration="none" family="微软雅黑" text-anchor="middle" size="20">外部</text><text id="ProcessOnText1030" fill="#000000" font-size="20" x="27.0" y="45.5" font-family="微软雅黑" font-weight="normal" font-style="normal" text-decoration="none" family="微软雅黑" text-anchor="middle" size="20">数据</text><text id="ProcessOnText1031" fill="#000000" font-size="20" x="27.0" y="70.5" font-family="微软雅黑" font-weight="normal" font-style="normal" text-decoration="none" family="微软雅黑" text-anchor="middle" size="20">库</text></g></g><g id="ProcessOnG1032" transform="matrix(1.0,0.0,0.0,1.0,590.0,241.0)" opacity="1.0"><path id="ProcessOnPath1033" d="M0.0 0.0L76.0 0.0L76.0 154.0L0.0 154.0Z" stroke="#323232" stroke-width="2.0" stroke-dasharray="none" opacity="1.0" fill="#ffffff"/><g id="ProcessOnG1034" transform="matrix(1.0,0.0,0.0,1.0,10.0,52.0)"><text id="ProcessOnText1035" fill="#000000" font-size="20" x="27.0" y="20.5" font-family="微软雅黑" font-weight="normal" font-style="normal" text-decoration="none" family="微软雅黑" text-anchor="middle" size="20">HIVE</text><text id="ProcessOnText1036" fill="#000000" font-size="20" x="27.0" y="45.5" font-family="微软雅黑" font-weight="normal" font-style="normal" text-decoration="none" family="微软雅黑" text-anchor="middle" size="20">表</text></g></g><g id="ProcessOnG1037" transform="matrix(1.0,0.0,0.0,1.0,681.0,241.0)" opacity="1.0"><path id="ProcessOnPath1038" d="M0.0 0.0L76.0 0.0L76.0 154.0L0.0 154.0Z" stroke="#323232" stroke-width="2.0" stroke-dasharray="none" opacity="1.0" fill="#ffffff"/><g id="ProcessOnG1039" transform="matrix(1.0,0.0,0.0,1.0,10.0,39.5)"><text id="ProcessOnText1040" fill="#000000" font-size="20" x="27.0" y="20.5" font-family="微软雅黑" font-weight="normal" font-style="normal" text-decoration="none" family="微软雅黑" text-anchor="middle" size="20">SQL</text><text id="ProcessOnText1041" fill="#000000" font-size="20" x="27.0" y="45.5" font-family="微软雅黑" font-weight="normal" font-style="normal" text-decoration="none" family="微软雅黑" text-anchor="middle" size="20">查询</text><text id="ProcessOnText1042" fill="#000000" font-size="20" x="27.0" y="70.5" font-family="微软雅黑" font-weight="normal" font-style="normal" text-decoration="none" family="微软雅黑" text-anchor="middle" size="20">结果</text></g></g></g></g></svg>