<svg xmlns="http://www.w3.org/2000/svg" xmlns:xlink="http://www.w3.org/1999/xlink" id="processonSvg1000" viewBox="181.0 62.0 628.0 430.0" width="628.0" height="430.0"><defs id="ProcessOnDefs1001"/><g id="ProcessOnG1002"><path id="ProcessOnPath1003" d="M181.0 62.0H809.0V492.0H181.0V62.0Z" fill="none"/><g id="ProcessOnG1004"><g id="ProcessOnG1005" transform="matrix(1.0,0.0,0.0,1.0,201.0,82.0)" opacity="1.0"><path id="ProcessOnPath1006" d="M0.0 0.0L132.0 0.0L132.0 324.0L0.0 324.0Z" stroke="#323232" stroke-width="2.0" stroke-dasharray="none" opacity="1.0" fill="#ffffff"/><g id="ProcessOnG1007" transform="matrix(1.0,0.0,0.0,1.0,10.0,149.5)"><text id="ProcessOnText1008" fill="#000000" font-size="20" x="55.0" y="20.5" font-family="微软雅黑" font-weight="normal" font-style="normal" text-decoration="none" family="微软雅黑" text-anchor="middle" size="20">ＨiveStore</text></g></g><g id="ProcessOnG1009" transform="matrix(1.0,0.0,0.0,1.0,333.0,82.0)" opacity="1.0"><path id="ProcessOnPath1010" d="M0.0 0.0L152.0 0.0L152.0 110.0L0.0 110.0Z" stroke="#323232" stroke-width="2.0" stroke-dasharray="none" opacity="1.0" fill="#ffffff"/><g id="ProcessOnG1011" transform="matrix(1.0,0.0,0.0,1.0,10.0,42.5)"><text id="ProcessOnText1012" fill="#000000" font-size="20" x="65.0" y="20.5" font-family="微软雅黑" font-weight="normal" font-style="normal" text-decoration="none" family="微软雅黑" text-anchor="middle" size="20">HiveSQL</text></g></g><g id="ProcessOnG1013" transform="matrix(1.0,0.0,0.0,1.0,485.0,82.0)" opacity="1.0"><path id="ProcessOnPath1014" d="M0.0 0.0L152.0 0.0L152.0 110.0L0.0 110.0Z" stroke="#323232" stroke-width="2.0" stroke-dasharray="none" opacity="1.0" fill="#ffffff"/><g id="ProcessOnG1015" transform="matrix(1.0,0.0,0.0,1.0,10.0,42.5)"><text id="ProcessOnText1016" fill="#000000" font-size="20" x="65.0" y="20.5" font-family="微软雅黑" font-weight="normal" font-style="normal" text-decoration="none" family="微软雅黑" text-anchor="middle" size="20">UDF</text></g></g><g id="ProcessOnG1017" transform="matrix(1.0,0.0,0.0,1.0,637.0,82.0)" opacity="1.0"><path id="ProcessOnPath1018" d="M0.0 0.0L152.0 0.0L152.0 110.0L0.0 110.0Z" stroke="#323232" stroke-width="2.0" stroke-dasharray="none" opacity="1.0" fill="#ffffff"/><g id="ProcessOnG1019" transform="matrix(1.0,0.0,0.0,1.0,10.0,42.5)"><text id="ProcessOnText1020" fill="#000000" font-size="20" x="65.0" y="20.5" font-family="微软雅黑" font-weight="normal" font-style="normal" text-decoration="none" family="微软雅黑" text-anchor="middle" size="20">SerDe</text></g></g><g id="ProcessOnG1021" transform="matrix(1.0,0.0,0.0,1.0,333.0,192.0)" opacity="1.0"><path id="ProcessOnPath1022" d="M0.0 0.0L456.0 0.0L456.0 107.0L0.0 107.0Z" stroke="#323232" stroke-width="2.0" stroke-dasharray="none" opacity="1.0" fill="#ffffff"/><g id="ProcessOnG1023" transform="matrix(1.0,0.0,0.0,1.0,10.0,41.0)"><text id="ProcessOnText1024" fill="#000000" font-size="20" x="217.0" y="20.5" font-family="微软雅黑" font-weight="normal" font-style="normal" text-decoration="none" family="微软雅黑" text-anchor="middle" size="20">Spark SQL</text></g></g><g id="ProcessOnG1025" transform="matrix(1.0,0.0,0.0,1.0,333.0,299.0)" opacity="1.0"><path id="ProcessOnPath1026" d="M0.0 0.0L456.0 0.0L456.0 107.0L0.0 107.0Z" stroke="#323232" stroke-width="2.0" stroke-dasharray="none" opacity="1.0" fill="#ffffff"/><g id="ProcessOnG1027" transform="matrix(1.0,0.0,0.0,1.0,10.0,41.0)"><text id="ProcessOnText1028" fill="#000000" font-size="20" x="217.0" y="20.5" font-family="微软雅黑" font-weight="normal" font-style="normal" text-decoration="none" family="微软雅黑" text-anchor="middle" size="20">Apache Spark</text></g></g><g id="ProcessOnG1029" transform="matrix(1.0,0.0,0.0,1.0,211.0,429.0)" opacity="1.0"><path id="ProcessOnPath1030" d="M0.0 0.0L559.0 0.0L559.0 43.0L0.0 43.0Z" stroke="none" stroke-width="0.0" stroke-dasharray="none" opacity="1.0" fill="none"/><g id="ProcessOnG1031" transform="matrix(1.0,0.0,0.0,1.0,0.0,13.375)"><text id="ProcessOnText1032" fill="#000000" font-size="13" x="278.5" y="13.325" font-family="微软雅黑" font-weight="normal" font-style="normal" text-decoration="none" family="微软雅黑" text-anchor="middle" size="13">Spark SQL支持的Hive组件</text></g></g></g></g></svg>